<?xml version="1.0" encoding="utf-8"?>
<!-- Generator: Adobe Illustrator 23.1.1, SVG Export Plug-In . SVG Version: 6.00 Build 0)  -->
<svg version="1.1" id="One_line_x2C__cmyk_x2C__positive"
	 xmlns="http://www.w3.org/2000/svg" xmlns:xlink="http://www.w3.org/1999/xlink" x="0px" y="0px" viewBox="0 0 154.2047 72.9921"
	 style="enable-background:new 0 0 154.2047 72.9921;" xml:space="preserve" height="45">
<style type="text/css">
	.st0{fill:#0051A5;}
	.st1{fill:#FEDF01;}
	.st2{fill:#FFFFFF;}
</style>
<g id="Layer_2_2_">
	<g>
		<g>
			<g>
				<g>
					<g>
						<g>
							<path class="st0" d="M55.3134,63.7321c0,2.3854-0.9781,3.7683-2.8868,4.5023c-7.4162,2.8605-16.1999,4.335-24.5554,4.335
								c-8.3545,0-17.138-1.4745-24.5564-4.335c-1.9078-0.734-2.8859-2.1169-2.8859-4.5023V0.4227h54.8845V63.7321z"/>
							<g>
								<g>
									<path class="st1" d="M15.1481,39.0032C7.5509,34.2603,5.0396,32.1591,4.827,29.0481
										c-0.0357-0.633,0.1073-1.6983,0.3724-2.4599l-0.7161-0.4753c-0.5742,0.9119-0.9372,2.1139-0.9372,3.2182
										c-0.001,1.7973,0.5753,3.1581,1.2809,4.2456c1.0685,1.6447,2.1917,2.6763,4.9566,4.7502
										c2.9826,2.2381,5.0154,4.8494,6.1868,7.5817h0.4239v-3.1015c4.0289,2.2863,7.5815,4.4392,9.3273,8.2829h0.4239
										C25.4608,47.1052,23.2081,44.0343,15.1481,39.0032z"/>
									<path class="st1" d="M50.1498,51.0965h-0.5143c0-2.8364-2.5997-3.6094-5.3236-3.6094H35.803
										c0.2733,1.3977,0.4017,3.0341,0.1883,4.5799h-0.4228c-0.7888-6.3721-4.3897-9.5291-9.423-12.907v2.8993h-0.4239
										c-1.3366-2.9919-4.2781-5.8009-7.0619-7.7927h0.0011c-0.7416-0.529-1.5071-1.0769-2.2665-1.6176v3.1278h-0.4239
										c-1.1798-3.1026-3.3231-5.4173-6.3783-8.1726c-3.299-2.971-4.6315-4.7484-5.4024-6.7928
										c-0.4691-1.2378-0.6005-2.2389-0.6183-3.5988c-0.0304-2.4314,1.199-4.6272,2.7312-5.4498v1.1779
										c-0.7603,1.0076-1.1538,2.2801-1.1557,3.5737c-0.0022,1.1925,0.2817,2.5208,0.8781,3.6535
										c1.8572,3.5378,8.1156,7.8802,12.0909,10.5451c12.3592,8.2892,14.8264,9.7363,16.8794,14.1355
										c0.2281,0.49,0.4564,1.1495,0.6466,1.913c1.786-0.2757,8.2621-1.261,9.4568-1.4504
										c0.2281-0.0357,0.7067-0.0967,0.9537-0.1113c1.1148-0.7058,1.9867-1.604,2.7524-2.725l-4.7378-0.3681
										c-0.244,0.5438-0.487,1.0002-0.7004,1.3661h-0.3849c0.1292-0.4815,0.2419-0.9558,0.3375-1.4238l-1.2094-0.0894v-0.2578
										l1.3115-0.162c0.2492-1.3408,0.3692-2.6081,0.3944-3.7933l-5.9672-0.3375c-0.0327,0.6119-0.0379,1.1882-0.0179,1.7226
										h-0.3818c-0.1273-0.5953-0.2273-1.1863-0.304-1.7638l-1.3071-0.0745v-0.3986l1.2419-0.0672
										c-0.1734-1.5788-0.185-3.0531-0.1208-4.3182l-3.4886-0.1609c0.1642,0.3069,0.3345,0.6183,0.4545,0.9558
										c0.753,2.1054,0.5742,4.5737,0.325,5.7074h-0.4228c-0.061-1.3136-0.5027-2.9225-0.9214-3.9048
										c-0.9654-2.2747-3.1319-4.2844-6.76-6.617v2.9068h-0.4239c-1.2074-3.8198-4.212-5.9441-8.6794-8.2388
										c-3.686-1.8919-4.8323-4.1711-4.6243-7.7003l1.2454,0.7372c0.3185,3.3012,2.8551,5.2047,5.5086,5.1847
										c1.5617-0.0106,3.0257-0.2177,4.4412-0.5016c2.0422-0.4123,3.9322-0.7646,5.5107-0.2051v-1.9498h-1.2399
										c-0.4429,0.3827-1.3419,0.8288-2.665,0.8486c-1.4544,0.0273-4.2066-0.8107-4.2066-3.8859
										c0-2.6701,2.2611-3.0961,4.1016-3.0961c0.9832,0,2.6207-0.0369,3.1749-0.0683c0.4122-0.0241,0.7204-0.0873,0.9201-0.285
										c0.2093-0.205,0.2724-0.4165,0.3209-0.689c0.0577-0.3312,0.0577-0.6709,0.0577-1.243c0-0.2104,0-1.9498,0-1.9498h-8.528
										v3.377l-3.2264-1.2273V9.6964h1.5449v-1.342h-5.7526V5.5497h-1.9626c-1.0496,0-2.2567,0.734-2.341,2.1579
										c-0.082,1.3651,0.5322,2.5146,1.9372,2.5146h0.2524v1.6343H11.259c-2.4619,0-4.318-1.8499-4.318-4.3044
										c0-2.5577,2.179-4.5054,4.8123-4.5054h4.1605v2.8047h16.1756c0,0,0,3.3529,0,4.1446c0,0.6983-0.0377,1.6365-0.1062,2.2297
										c-0.0474,0.4301-0.2007,1.2072-1.0179,1.8309c-0.4923,0.3754-1.2358,0.5269-2.443,0.5322
										c-0.3933,0.002-1.5407-0.0178-2.9152-0.102c-1.8426-0.1157-2.3654,0.5942-2.4399,1.2545c-0.017,0.14-0.0148,0.2755,0,0.406
										c0.8633-0.6689,2.0843-1.14,3.4716-0.7047c2.4409,0.7679,3.137,0.8361,4.4075-0.1628l0.1292,0.286
										c-0.1367,0.2124-0.3816,0.5163-0.7383,0.7866h1.179v6.3867l3.6703-2.1991h10.3011c0,0,4.355,2.2749,5.0712,2.6503
										c0.6321,0.3324,0.8813,0.7341,0.9802,1.3242c0.082,0.4932-0.0453,1.1178-0.2882,1.5174
										c-0.1514,0.2494-1.3345,2.1887-1.9604,3.2245c1.751,1.8951,2.9333,4.5464,2.9333,7.4993
										c0,2.6755-0.9897,6.1272-4.2047,8.6922c1.4135,0.4626,2.3201,1.2326,3.03,2.2473L50.1498,51.0965z M27.1802,16.6983
										c-1.4469-0.3175-2.2535-0.1387-3.0856,0.6543c0.4071,0.1945,0.9171,0.3007,1.4808,0.2598
										C26.3874,17.5555,26.8931,17.0685,27.1802,16.6983z M26.3443,25.9005l4.0761-2.4431
										c-0.7993-0.3984-1.6847-0.6509-2.7353-0.6647c-1.4039-0.0219-3.7755,0.6248-4.9228,0.8004
										C23.2745,23.9433,25.096,25.1074,26.3443,25.9005z M44.5475,26.1592l0.5648-0.792l-0.8749-1.1682l0.146-0.2578
										l2.461,1.3274l-0.5363,1.6267c0.3954,0.1894,0.7613,0.4312,1.2483,0.7541l1.5891-2.6135l-4.1164-2.1516h-9.0979
										l-7.3827,4.4422c1.3871,0.9634,2.6628,2.0046,3.5693,3.0531c1.9783-2.8784,5.455-4.7158,8.8962-4.7158
										C42.1393,25.6638,43.4506,25.7837,44.5475,26.1592z M43.8062,36.4729c-0.0463-1.3588-0.2178-2.5882-0.445-3.6724
										l-4.8198-0.2187c-0.3323,1.467-0.5488,2.8995-0.652,4.2045L43.8062,36.4729z M45.4299,32.8963
										c0.1547,1.2441,0.1704,2.4103,0.0916,3.4872l4.7754-0.2535c-0.1219-1.0842-0.4301-2.1116-0.8927-3.0508L45.4299,32.8963z
										 M42.9942,31.3324c-0.4973-1.7237-1.0926-2.9227-1.406-3.4874c-0.1999-0.0115-0.4017-0.0168-0.6048-0.0168
										c-0.3354,0-0.6731,0.043-0.999,0.0788c-0.4837,1.2052-0.8761,2.4241-1.1968,3.6589L42.9942,31.3324z M44.3203,28.4392
										c0.3556,0.955,0.6238,1.8824,0.8204,2.7743l2.9195-0.1609C47.057,29.8991,45.7748,28.9925,44.3203,28.4392z
										 M49.6913,40.7543c0.3418-0.8288,0.5615-1.627,0.6216-2.6365L45.35,37.8359c-0.224,1.3892-0.5942,2.5988-0.9886,3.5893
										L49.6913,40.7543z M37.4498,28.6307c-1.6627,0.7456-2.8079,1.7562-3.8301,3.2085l3.3968-0.1777
										C37.1386,30.1534,37.3363,29.1523,37.4498,28.6307z"/>
								</g>
								<g>
									<path class="st2" d="M31.146,58.4277c1.3841-0.2251,2.7082-1.302,2.7082-2.9301c0-1.468-0.6237-3.0804-4.9449-3.0804
										c-3.2318,0-7.2903,0-7.2903,0v0.1178c0.2208,0.0675,0.5691,0.2462,0.7972,0.4724
										c0.4954,0.4837,0.6584,1.2072,0.6825,2.1663v10.9142c0,0,3.9943,0,6.0419,0c3.3234,0,5.7285-1.2673,5.7285-4.1708
										C34.8691,59.5561,33.0317,58.5506,31.146,58.4277z M28.0374,53.7203c1.546,0,2.5945,0.3345,2.5945,1.9856
										c0,1.7595-1.4051,2.2443-3.0078,2.2443c-0.7771,0-1.3808,0-1.3808,0v-4.2299
										C26.2433,53.7203,27.1076,53.7203,28.0374,53.7203z M28.1931,64.7954c-0.6543,0-1.9498,0-1.9498,0v-5.5811
										c0,0,1.0601,0,1.8602,0c2.5558,0,3.5368,0.7613,3.5368,2.6776C31.6403,63.9647,30.3606,64.7954,28.1931,64.7954z"/>
									<path class="st2" d="M16.2388,66.0879h3.9363L15.146,59.659c2.0161-0.5395,3.5262-1.6416,3.5262-3.6449
										c0-2.3526-1.4071-3.5969-5.0891-3.5969c-3.2643,0-7.6044,0-7.6044,0v0.1178c0.2797,0.1,0.5931,0.2809,0.7982,0.4827
										c0.5322,0.5249,0.6909,1.3263,0.6909,2.4095c0,0.0032,0,10.6607,0,10.6607h3.1582v-6.0597c0,0,0.6857,0,1.1527,0
										L16.2388,66.0879z M10.626,53.7203c0,0,1.1998,0,2.1275,0c1.7711,0,2.6955,0.5173,2.6955,2.4
										c0,1.6785-1.2096,2.6722-3.1489,2.6722c-0.7771,0-1.6741,0-1.6741,0V53.7203z"/>
									<path class="st2" d="M47.6385,54.2904c0.8445,0.4794,1.101,1.1051,1.1062,1.1105
										c0.0411,0.0463,0.1316,0.0315,0.1316,0.0315l0.6877-2.3378c0,0-1.2346-0.8865-4.1709-0.8865
										c-4.4444,0-7.7718,2.2389-7.7718,7.1375c0,5.5203,3.9636,6.9536,7.4574,6.9536c3.2507,0,4.5273-1.0336,4.5273-1.0336
										v-1.6039c0,0-1.1484,1.0728-3.6102,1.0728c-2.035,0-5.0187-0.9287-5.0828-5.4677c-0.0599-4.1887,1.7667-5.556,4.215-5.556
										C46.492,53.7108,47.1745,54.0296,47.6385,54.2904z"/>
								</g>
							</g>
						</g>
					</g>
				</g>
			</g>
		</g>
	</g>
</g>
<g>
	<g>
		<path class="st0" d="M62.4264,71.4757c-1.8741,0-3.4138-1.5113-3.4138-3.4295c0-1.9089,1.5397-3.4306,3.4138-3.4306
			c1.8697,0,3.4095,1.5217,3.4095,3.4306C65.8359,69.9644,64.2961,71.4757,62.4264,71.4757z M62.4264,65.2971
			c-1.4618,0-2.6292,1.2188-2.6292,2.7491c0,1.5322,1.1674,2.7659,2.6292,2.7659c1.4555,0,2.6376-1.2337,2.6376-2.7659
			C65.064,66.5159,63.8819,65.2971,62.4264,65.2971z M62.6555,66.1007c0.6837,0,1.1338,0.451,1.1338,1.123
			c0,0.5828-0.387,1.0538-0.8561,1.0622c0.0695,0.0631,0.1094,0.1,0.1557,0.1663c0.2208,0.2765,0.9192,1.4932,0.9192,1.4932h-0.9108
			c-0.1473-0.2586-0.2102-0.3586-0.3597-0.6362c-0.3786-0.6899-0.4984-0.8749-0.6373-0.9412
			c-0.0379-0.0095-0.0694-0.0274-0.1219-0.0274v1.6048h-0.751v-3.8447H62.6555z M61.9784,67.7591h0.2608
			c0.3324,0,0.4775-0.0368,0.5805-0.1284c0.0926-0.0904,0.1451-0.2302,0.1451-0.387c0-0.2387-0.0863-0.3974-0.2735-0.47
			c-0.0821-0.0284-0.2481-0.0558-0.4331-0.0558h-0.2798V67.7591z"/>
	</g>
</g>
<g>
	<path class="st0" d="M88.145,5.9044c3.0151,0,4.3838,1.6069,4.3838,3.2534c0,1.4878-0.9321,2.4199-2.1621,2.896
		c1.9043,0.5952,2.8765,1.6665,2.8765,3.4517c0,1.0117-0.4565,2.043-1.3291,2.8169c-0.853,0.7534-2.2217,1.2495-3.6499,1.2495
		h-5.6138V8.6422c0-0.8931,0-1.6069-0.3569-2.063c-0.1982-0.2578-0.5752-0.4761-0.9126-0.4961V5.9044H88.145z M87.4506,11.5778
		c1.2896,0,2.2812-0.8726,2.2812-2.2217c0-1.1304-0.8926-2.0034-2.4199-2.0034h-1.9438v4.2251H87.4506z M87.4506,18.1237
		c1.9043,0,2.916-1.21,2.916-2.7969c0-1.3687-1.0713-2.3008-2.5586-2.3008h-2.4399v5.0977H87.4506z"/>
	<path class="st0" d="M102.0434,11.2404c-0.7734-0.3369-1.3687-0.5156-1.9238-0.5156c-0.5557,0-1.0713,0.1587-1.7461,0.5156v8.3315
		h-2.519V9.277h0.5752c0.397,0.2183,0.7144,0.2974,0.9917,0.2974c0.3374,0,0.6548-0.0791,1.0713-0.2183
		c0.6943-0.2183,1.3887-0.377,2.1226-0.377c0.6348,0,1.3291,0.0991,2.1821,0.397L102.0434,11.2404z"/>
	<path class="st0" d="M108.7075,19.9489c-3.0747,0-5.2568-2.3608-5.2568-5.4551c0-3.1343,2.2417-5.4751,5.2168-5.4751
		c2.4399,0,4.6221,1.5278,4.6221,4.4834c0,0.1982-0.02,0.6543-0.0596,1.0117l-7.1411,0.1387
		c0.1982,2.1821,1.4482,3.7095,3.1143,3.7095c0.9521,0,1.9438-0.3569,3.0947-1.0513l0.7139,1.2295
		C111.4448,19.6315,110.0761,19.9489,108.7075,19.9489z M110.5522,13.0456c0.0195-1.666-0.833-2.5391-1.8447-2.5391
		c-1.21,0-2.2617,1.0317-2.4795,2.7378L110.5522,13.0456z"/>
	<path class="st0" d="M125.0537,16.6164c0.6943-1.8647,1.686-5.2168,1.8252-7.3394h2.4595l-3.7095,10.2949h-2.1421l-1.627-6.3477
		l-1.7256,6.3477h-2.1421L114.3818,9.277h2.7173l2.3809,7.3394l1.7651-7.3394h1.7456L125.0537,16.6164z"/>
	<path class="st0" d="M132.5327,7.4318c-0.8135,0-1.4678-0.6543-1.4678-1.4678c0-0.813,0.6543-1.4678,1.4678-1.4678
		s1.4878,0.6548,1.4878,1.4678C134.0205,6.7775,133.3461,7.4318,132.5327,7.4318z M131.2832,19.5719V9.277h2.519v10.2949H131.2832z"
		/>
	<path class="st0" d="M143.3906,19.5719v-5.7725c0-1.0117-0.1187-1.7651-0.4165-2.2217c-0.377-0.6147-0.9917-0.853-1.7061-0.853
		c-0.7139,0-1.3687,0.2578-1.8047,0.4761v8.3711h-2.5195V9.277h0.5752c0.4761,0.2183,0.7339,0.2974,0.9922,0.2974
		c0.3569,0,0.6743-0.0791,1.0513-0.1982c0.5156-0.1787,1.1304-0.4165,2.1226-0.4165c1.5669,0,2.8164,0.6543,3.5503,1.7852
		c0.4961,0.7539,0.6748,1.7456,0.6748,2.8765v5.9507H143.3906z"/>
	<path class="st0" d="M86.7168,29.1618c1.8252,0,3.6304,0.4761,4.8799,1.4282c1.6465,1.25,2.6582,3.2534,2.6582,5.4155
		c0,2.1421-1.0117,4.2646-2.6582,5.5146c-1.2495,0.9521-3.0547,1.3091-4.8799,1.3091h-4.0664V31.8996
		c0-0.8926,0-1.6069-0.3569-2.063c-0.1982-0.2583-0.5752-0.4761-0.9126-0.4961v-0.1787H86.7168z M85.3681,41.381h1.21
		c1.6265,0,2.7373-0.4956,3.5508-1.4282c0.7935-0.9121,1.23-2.5391,1.23-3.9473c0-1.4282-0.4365-3.0547-1.23-3.9673
		c-0.8135-0.9321-1.9243-1.4282-3.5508-1.4282h-1.21V41.381z"/>
	<path class="st0" d="M101.4003,43.2062c-2.8765,0-5.1772-2.2612-5.1772-5.4751c0-3.1738,2.3008-5.4546,5.1772-5.4546
		c2.8564,0,5.1772,2.2808,5.1772,5.4546C106.5776,40.945,104.2568,43.2062,101.4003,43.2062z M101.4003,33.7638
		c-1.4482,0-2.5591,1.5273-2.5591,3.9673c0,2.4204,1.0913,3.9873,2.5591,3.9873s2.5391-1.5669,2.5391-3.9873
		C103.9394,35.2912,102.8681,33.7638,101.4003,33.7638z"/>
	<path class="st0" d="M111.6865,42.8292h-2.519V27.3966h2.519V42.8292z"/>
	<path class="st0" d="M115.4272,32.5343c0.3965,0.2178,0.6943,0.2974,1.0513,0.2974c0.2778,0,0.5952-0.1191,0.9722-0.2578
		c0.5156-0.1982,1.2295-0.3569,2.0825-0.3569c2.936,0,4.979,2.499,4.979,5.4946c0,2.7969-1.6265,5.4946-4.8599,5.4946
		c-0.9126,0-1.5273-0.1587-2.2612-0.4165v5.2964h-2.5391V32.5343H115.4272z M117.3911,41.2223
		c0.6348,0.2778,1.2495,0.397,1.8247,0.397c1.6465,0,2.6782-1.5273,2.6782-4.0269c0-2.0034-1.0518-3.749-2.8765-3.749
		c-0.7739,0-1.2695,0.2183-1.6265,0.4365V41.2223z"/>
	<path class="st0" d="M133.6279,42.8292v-5.7524c0-1.0317-0.1387-1.7856-0.4165-2.2417c-0.377-0.6147-1.0117-0.853-1.686-0.853
		c-0.7144,0-1.3687,0.2383-1.9043,0.5356v8.3115h-2.519V27.3966h2.519v5.2964c0.3174-0.1191,1.0713-0.4761,2.3013-0.4761
		c1.5469,0,2.7969,0.7139,3.5503,1.8447c0.4761,0.7539,0.6748,1.7852,0.6748,2.916v5.8516H133.6279z"/>
	<path class="st0" d="M140.3989,30.6896c-0.8135,0-1.4678-0.6548-1.4678-1.4683c0-0.813,0.6543-1.4678,1.4678-1.4678
		s1.4878,0.6548,1.4878,1.4678C141.8867,30.0348,141.2124,30.6896,140.3989,30.6896z M139.1494,42.8292V32.5343h2.519v10.2949
		H139.1494z"/>
	<path class="st0" d="M151.2563,42.8292v-5.7725c0-1.0117-0.1191-1.7656-0.4165-2.2217c-0.377-0.6147-0.9917-0.853-1.7061-0.853
		c-0.7139,0-1.3687,0.2578-1.8052,0.4761v8.3711h-2.519V32.5343h0.5752c0.4761,0.2178,0.7339,0.2974,0.9917,0.2974
		c0.3574,0,0.6748-0.0796,1.0518-0.1982c0.5156-0.1787,1.1304-0.4165,2.1221-0.4165c1.5674,0,2.8169,0.6543,3.5508,1.7852
		c0.4961,0.7539,0.6748,1.7456,0.6748,2.876v5.9512H151.2563z"/>
</g>
</svg>
